<svg id="Layer_1" data-name="Layer 1" xmlns="http://www.w3.org/2000/svg" viewBox="0 0 35.2 49.11"><defs><style>.cls-1{fill:none;stroke-width:5px;}.cls-1,.cls-2,.cls-4{stroke:#ee9626;stroke-miterlimit:10;}.cls-2,.cls-3,.cls-4{fill:#ee9626;}.cls-2,.cls-4{stroke-width:0.5px;}.cls-4{opacity:0.34;}</style></defs><title>foodinpublic</title><path class="cls-1" d="M13.21-8.37" transform="translate(-7.93 -2.41)"/><path class="cls-2" d="M24.56,21.27c-.07.28-.12.56-.21.84a.31.31,0,0,0,0,.32q2.75,3.53,5.47,7.06l.75,1a1.5,1.5,0,1,1-2.44,1.75Q25.36,28,22.56,23.77a.32.32,0,0,0-.32-.17,2.28,2.28,0,0,1-2-1l-3.36-4.69a.39.39,0,0,1,0-.59c.19-.14.41-.08.58.15l3.3,4.61a1.65,1.65,0,0,0,1.53.75.88.88,0,0,1,.84.46q2.82,4.22,5.63,8.45a.84.84,0,0,0,.47.38A.73.73,0,0,0,30,31l-1.26-1.64c-1.68-2.16-3.35-4.33-5-6.49a.89.89,0,0,1-.13-.94,1.62,1.62,0,0,0-.2-1.63L20.1,15.63A.72.72,0,0,1,20,15.4a.37.37,0,0,1,.2-.43.37.37,0,0,1,.46.1.61.61,0,0,1,.07.1L24,19.81a2.45,2.45,0,0,1,.48,1.45Z" transform="translate(-7.93 -2.41)"/><path class="cls-2" d="M33.68,17.53a6.44,6.44,0,0,1-1,3.27,7.09,7.09,0,0,1-2.29,2.27,4.15,4.15,0,0,1-1.47.58,2,2,0,0,0-1,.49.38.38,0,0,1-.47.05.37.37,0,0,1-.16-.42.66.66,0,0,1,.15-.22,2.33,2.33,0,0,1,1.18-.62,4.32,4.32,0,0,0,2.21-1.14,6.21,6.21,0,0,0,2-3.59,3.13,3.13,0,0,0,0-1.22A1.52,1.52,0,0,0,31,15.74a4.18,4.18,0,0,0-2.07,1.1,6.09,6.09,0,0,0-2.05,3.65,4,4,0,0,0,0,1,2.88,2.88,0,0,1-.09,1.17.38.38,0,1,1-.73-.22,2.37,2.37,0,0,0,0-1,5.06,5.06,0,0,1,.51-2.74,6.79,6.79,0,0,1,3.3-3.46A3.13,3.13,0,0,1,31.73,15a2.23,2.23,0,0,1,1.86,1.87C33.64,17.09,33.66,17.35,33.68,17.53Z" transform="translate(-7.93 -2.41)"/><path class="cls-2" d="M21.22,32.91A1.55,1.55,0,0,1,20,30.4L21.87,28l.92-1.18a.4.4,0,0,1,.57-.12.39.39,0,0,1,0,.58c-.91,1.18-1.82,2.37-2.74,3.55a.84.84,0,0,0-.19.59.75.75,0,0,0,.48.66.78.78,0,0,0,.82-.14,1.09,1.09,0,0,0,.22-.26l1.91-2.92A1.67,1.67,0,0,1,24,28.6a.38.38,0,0,1,.63.4l-.09.16-2,3A1.67,1.67,0,0,1,21.22,32.91Z" transform="translate(-7.93 -2.41)"/><path class="cls-2" d="M18.75,16.06a.43.43,0,0,1,.36.23c.63.9,1.26,1.79,1.88,2.69l1.17,1.67a.38.38,0,0,1,0,.45.32.32,0,0,1-.38.17.68.68,0,0,1-.3-.23l-2.24-3.18c-.27-.4-.55-.79-.83-1.19a.38.38,0,0,1,0-.41A.37.37,0,0,1,18.75,16.06Z" transform="translate(-7.93 -2.41)"/><path class="cls-3" d="M177.34-393.86" transform="translate(-7.93 -2.41)"/><path class="cls-2" d="M25.48,48.91c-2.09-2.56-4.17-5-6.16-7.56a82.19,82.19,0,0,1-8.49-12.86,25.38,25.38,0,0,1-2.27-5.77,14.46,14.46,0,0,1,1.09-9.58,16.89,16.89,0,0,1,14-10.34A17.41,17.41,0,0,1,42.7,17.19a15.83,15.83,0,0,1-1.41,9.18,64.29,64.29,0,0,1-6.54,11,130,130,0,0,1-8.75,11C25.87,48.51,25.73,48.65,25.48,48.91Zm.06-2.14c.21-.24.35-.38.48-.54,2.18-2.74,4.42-5.43,6.52-8.22a64.1,64.1,0,0,0,7.27-11.73,14.89,14.89,0,0,0,1.57-8.54A16.11,16.11,0,0,0,26.81,4.11a15.93,15.93,0,0,0-15.55,8.83,13.75,13.75,0,0,0-1.35,9.48,26.84,26.84,0,0,0,2.94,6.91A102.13,102.13,0,0,0,22.91,43.62C23.76,44.66,24.63,45.68,25.54,46.77Z" transform="translate(-7.93 -2.41)"/><path class="cls-4" d="M25.56,47.14c.22-.24.36-.38.49-.54,2.18-2.74,4.42-5.43,6.52-8.22a64.65,64.65,0,0,0,7.27-11.73,14.77,14.77,0,0,0,1.56-8.53A16.1,16.1,0,0,0,26.84,4.48a15.94,15.94,0,0,0-15.55,8.83,13.76,13.76,0,0,0-1.36,9.48,26.93,26.93,0,0,0,3,6.92A102.81,102.81,0,0,0,22.93,44C23.78,45,24.66,46.06,25.56,47.14Z" transform="translate(-7.93 -2.41)"/><path class="cls-2" d="M42.2,49.94v1.33H8.93V49.94Z" transform="translate(-7.93 -2.41)"/></svg>